<svg xmlns="http://www.w3.org/2000/svg" xmlns:xlink="http://www.w3.org/1999/xlink" width="59.001" height="26.781" viewBox="0 0 59.001 26.781">
  <defs>
    <clipPath id="clip-path">
      <rect id="Rectangle_2" data-name="Rectangle 2" width="59.001" height="26.781" fill="none"/>
    </clipPath>
  </defs>
  <g id="Group_3" data-name="Group 3" transform="translate(0 0)">
    <g id="Group_1" data-name="Group 1" transform="translate(0 0)" clip-path="url(#clip-path)">
      <path id="Path_1" data-name="Path 1" d="M39.334,0A26.959,26.959,0,0,0,29.5,1.792,26.956,26.956,0,0,0,19.667,0C8.805,0,0,6,0,13.391s8.805,13.39,19.667,13.39A26.956,26.956,0,0,0,29.5,24.989a26.959,26.959,0,0,0,9.834,1.792c10.862,0,19.667-6,19.667-13.39S50.2,0,39.334,0M19.53,19.418l-5.3.008a21.337,21.337,0,0,1-.828-5.674l6.117-.01Zm-6.8-5.665a22.1,22.1,0,0,0,.8,5.674l-4.137.006A12.584,12.584,0,0,1,7.88,13.76Zm-4.851-.666a12.573,12.573,0,0,1,1.5-5.678l4.14-.006a22.111,22.111,0,0,0-.785,5.677Zm11.642-.017-6.119.009A21.339,21.339,0,0,1,14.212,7.4l5.3-.008Zm-.01-6.349-5.085.007a14.188,14.188,0,0,1,.91-2.136c.994-1.8,2.251-3.279,4.167-3.53ZM13.894,6.2c-.062.172-.118.351-.176.528l-3.951.006a11.984,11.984,0,0,1,7.3-5.352A10.414,10.414,0,0,0,13.894,6.2m.721-4.659a12.677,12.677,0,0,0-3.727,2.665A13.061,13.061,0,0,0,8.98,6.736l-4.99.008a20.3,20.3,0,0,1,10.626-5.2M3.373,7.418,8.617,7.41a13.271,13.271,0,0,0-1.411,5.678l-6.2.009A9.333,9.333,0,0,1,3.373,7.418M1.008,13.77l6.2-.01a13.273,13.273,0,0,0,1.428,5.674L3.4,19.442A9.3,9.3,0,0,1,1.008,13.77m3.006,6.344L9,20.106a12.8,12.8,0,0,0,5.665,5.185c-4.3-.858-7.785-2.367-10.651-5.177m5.774-.008,3.946-.006a15.1,15.1,0,0,0,1.035,2.45,8.738,8.738,0,0,0,2.336,2.885,11.986,11.986,0,0,1-7.318-5.329m4.761.293c-.036-.1-.067-.2-.1-.3l5.083-.008.008,5.658c-2.605-.441-3.893-2.6-4.991-5.351m24.181-1.01-5.277.008a21.338,21.338,0,0,1-.826-5.669l6.082-.014h.013c0,1.481.006,4.21.008,5.676m-18.544-12,1.564,0,3.734-.006a21.341,21.341,0,0,1,.828,5.674l-6.117.01c0-.684,0-1.714,0-2.754,0-1.1,0-2.2,0-2.922m11.651,5.658-4.85.007a22.019,22.019,0,0,0-.8-5.675l2.39,0,1.747,0a12.59,12.59,0,0,1,1.514,5.674M31.08,7.376l5.24-.008a9.3,9.3,0,0,1,2.387,5.672l-6.2.009A13.219,13.219,0,0,0,31.08,7.376M26.43,13.732A13.232,13.232,0,0,0,27.856,19.4l-5.261.008a9.3,9.3,0,0,1-2.388-5.672Zm.673,0,4.852-.008a22.131,22.131,0,0,0,.8,5.67l-4.141.006A12.584,12.584,0,0,1,27.1,13.736M38.715,9.974a10.717,10.717,0,0,0-1.523-2.608l1.519,0Zm0-3.283-2.084,0a14.945,14.945,0,0,0-2.173-1.972c.027-.053.053-.107.081-.159.994-1.8,2.251-3.28,4.167-3.53ZM33.9,4.327a19,19,0,0,0-1.742-1.06,11.737,11.737,0,0,1,4.106-1.912A8.837,8.837,0,0,0,33.9,4.327m-.089-2.814a12.559,12.559,0,0,0-2.32,1.41c-.256-.127-.516-.251-.782-.369-.107-.048-.222-.09-.33-.136a25.241,25.241,0,0,1,3.432-.9m-5.571.82A18.465,18.465,0,0,1,35.7,6.7L30.715,6.7a13.052,13.052,0,0,0-2.753-3.309q-.346-.3-.712-.568a12.568,12.568,0,0,0-2.2-1.307,26.666,26.666,0,0,1,3.193.813M26.6,3.188A12.156,12.156,0,0,1,29.927,6.7l-3.946.006a15.577,15.577,0,0,0-1.034-2.448v0A8.746,8.746,0,0,0,22.61,1.375,11.762,11.762,0,0,1,26.6,3.188M24.4,4.679a15.432,15.432,0,0,1,.867,2.033l-2.077,0h-.908l-2.1,0-.009-5.658C22.1,1.3,23.469,2.889,24.4,4.679M20.2,16.806a10.436,10.436,0,0,0,.891,1.721q.292.453.631.888l-1.518,0ZM20.2,20.09l2.083,0q.1.109.2.218A15.175,15.175,0,0,0,24.46,22.06l-.034.065c-.97,1.82-2.273,3.375-4.214,3.623Zm2.526,5.275a8.959,8.959,0,0,0,2.238-2.831c.014-.026.029-.053.043-.079a19.085,19.085,0,0,0,1.742,1.06l-.13.092a11.735,11.735,0,0,1-3.975,1.82Zm2.37-.1a12.6,12.6,0,0,0,2.174-1.3c.048-.036.1-.072.145-.109.362.179.734.357,1.113.505l-.275.092a25.4,25.4,0,0,1-3.157.813m5.315-.9.011-.006c-.321-.107-.639-.218-.948-.338l-.006,0a17.994,17.994,0,0,1-6.263-3.94l4.991-.008c.337.557.953,1.381,1.276,1.811a12.3,12.3,0,0,0,1.477,1.5h0a12.971,12.971,0,0,0,2.913,1.875,26.658,26.658,0,0,1-3.449-.9m-1.458-4.289,3.946-.006a15.656,15.656,0,0,0,1.035,2.45,8.737,8.737,0,0,0,2.337,2.884,12.011,12.011,0,0,1-7.318-5.329m4.688-.007,5.086-.008.008,5.659c-2.735-.38-4.232-3.236-5.094-5.65M57.906,13.01l-6.2.01a13.276,13.276,0,0,0-1.428-5.674l5.24-.008a9.3,9.3,0,0,1,2.387,5.672m-6.871.683a12.588,12.588,0,0,1-1.5,5.678l-4.14.006a22.087,22.087,0,0,0,.785-5.677Zm-5.652-6.34,4.137-.006a12.59,12.59,0,0,1,1.514,5.674l-4.85.007a22.137,22.137,0,0,0-.8-5.675M54.9,6.666l-4.986.008A12.8,12.8,0,0,0,44.25,1.49c4.3.857,7.785,2.366,10.65,5.176m-5.774.009-3.946.006a15.16,15.16,0,0,0-1.035-2.45,8.748,8.748,0,0,0-2.336-2.885,11.987,11.987,0,0,1,7.317,5.329M39.374,1.032c2.606.441,3.893,2.6,4.991,5.351.035.1.066.2.1.3l-5.083.008Zm.01,6.331,5.3-.008a21.315,21.315,0,0,1,.828,5.674l-6.116.01Zm.01,6.349,6.119-.009A21.339,21.339,0,0,1,44.7,19.38l-5.3.008Zm.01,6.349,5.086-.008a14.168,14.168,0,0,1-.91,2.136c-.993,1.8-2.251,3.279-4.167,3.53Zm5.792-.009,3.951-.006a11.99,11.99,0,0,1-7.3,5.352A10.9,10.9,0,0,0,45.2,20.052m-.9,5.188a12.683,12.683,0,0,0,3.727-2.665,13.043,13.043,0,0,0,1.909-2.531l4.989-.008A20.291,20.291,0,0,1,44.3,25.24m11.243-5.877-5.245.008a13.264,13.264,0,0,0,1.411-5.678l6.2-.01a9.333,9.333,0,0,1-2.366,5.679" transform="translate(0 0)"/>
    </g>
  </g>
</svg>
