<svg id="Group_5" data-name="Group 5" xmlns="http://www.w3.org/2000/svg" xmlns:xlink="http://www.w3.org/1999/xlink" width="37.538" height="62.76" viewBox="0 0 37.538 62.76">
  <defs>
    <clipPath id="clip-path">
      <rect id="Rectangle_4" data-name="Rectangle 4" width="37.538" height="62.76" fill="none"/>
    </clipPath>
  </defs>
  <g id="Group_4" data-name="Group 4" clip-path="url(#clip-path)">
    <path id="Path_2" data-name="Path 2" d="M37.373,19.748a1.376,1.376,0,0,0-1.209-.729H22.227L28.111,1.814V1.805a1.4,1.4,0,0,0-.2-1.244A1.417,1.417,0,0,0,26.807,0H12.7A1.379,1.379,0,0,0,11.4.913c0,.009-.009.009-.009.017L.064,34.394V34.4a1.43,1.43,0,0,0,.129,1.141,1.364,1.364,0,0,0,.875.626,1.145,1.145,0,0,0,.291.035h10.79L7.466,61.128a1.389,1.389,0,0,0,.352,1.209,1.371,1.371,0,0,0,1.089.42,1.4,1.4,0,0,0,1.038-.608L37.3,21.159a1.341,1.341,0,0,0,.077-1.411M11.4,55.025l3.756-19.941a1.384,1.384,0,0,0-.292-1.132,1.364,1.364,0,0,0-1.055-.5H3.272l10.4-30.71h11.21L19,19.958A1.372,1.372,0,0,0,20.3,21.777H33.6Z" transform="translate(0)" fill="#1a1818"/>
  </g>
</svg>
